<svg width="36" height="36" viewBox="0 0 36 36" fill="none" xmlns="http://www.w3.org/2000/svg">
<circle cx="18" cy="18" r="18" fill="#363636"/>
<g clip-path="url(#clip0_14_734)">
<path d="M11.8087 16.2625C12.6706 17.0726 13.4812 17.8363 14.2943 18.5983C14.6353 18.9177 14.7632 19.2929 14.6143 19.7279C14.3869 20.3917 13.5133 20.6524 12.9134 20.2407C12.8331 20.1855 12.7595 20.1205 12.6885 20.0537C11.2421 18.6982 9.79578 17.3427 8.35066 15.986C7.88296 15.547 7.88172 14.893 8.34943 14.4545C9.80567 13.0874 11.2638 11.7226 12.7194 10.3555C13.0388 10.0558 13.4101 9.92808 13.8537 10.0425C14.2776 10.1517 14.5439 10.4171 14.6433 10.8149C14.7428 11.2151 14.6019 11.5536 14.2961 11.8405C13.5368 12.5508 12.7799 13.2634 12.0237 13.9766C11.9669 14.03 11.8909 14.0712 11.86 14.1769C11.9533 14.1769 12.0342 14.1769 12.1158 14.1769C15.2989 14.1769 18.482 14.1758 21.665 14.1775C24.6338 14.1787 27.1273 16.0261 27.8274 18.7394C28.6744 22.0242 26.3069 25.3723 22.7543 25.9165C22.4343 25.9653 22.1148 26.0001 21.7899 26.0001C19.0541 25.9989 16.3177 26.0001 13.5819 25.9995C13.0011 25.9995 12.5198 25.6121 12.4562 25.1011C12.3882 24.5563 12.7373 24.0784 13.302 23.9396C13.4163 23.9111 13.5312 23.9157 13.6461 23.9157C16.3127 23.9152 18.9793 23.9186 21.6465 23.914C23.5927 23.9105 25.1923 22.7298 25.6544 20.969C26.2321 18.7696 24.5602 16.5284 22.1741 16.2961C21.9282 16.2723 21.683 16.2625 21.4365 16.2625C18.3306 16.2625 15.2241 16.2625 12.1182 16.2625C12.0361 16.2625 11.9545 16.2625 11.8087 16.2625Z" fill="white"/>
</g>
<defs>
<clipPath id="clip0_14_734">
<rect width="20" height="16" fill="white" transform="translate(8 10)"/>
</clipPath>
</defs>
</svg>
