<svg width="36" height="36" viewBox="0 0 36 36" fill="none" xmlns="http://www.w3.org/2000/svg">
<circle cx="18" cy="18" r="18" fill="#363636"/>
<g clip-path="url(#clip0_13_690)">
<path d="M9.51883 24.9998C9.68536 22.7536 11.4264 20.9003 13.6784 20.6276C16.224 20.3194 18.5304 22.0165 18.9692 24.5248C18.9968 24.6817 19.0143 24.8404 19.0237 24.9998H20.5388C20.5237 24.7271 20.4831 24.4551 20.4342 24.1836C19.842 20.8859 16.6033 18.5875 13.294 19.1652C10.945 19.5755 9.31223 20.9177 8.41633 23.1191C8.16904 23.7242 8.01252 24.3561 8 24.9998H9.51883Z" fill="white"/>
<path d="M21.3182 20.806C22.1026 20.5595 22.8921 20.5302 23.6972 20.6784C25.7569 21.0575 27.3878 22.9364 27.4999 24.9995H28.9999C28.9567 23.9567 28.6637 22.9775 28.0984 22.0797C27.0435 20.4063 25.5309 19.409 23.5513 19.1431C22.6179 19.018 21.6994 19.0965 20.8042 19.3953C20.4667 19.508 20.2595 19.762 20.2432 20.0664C20.2119 20.6416 20.7128 20.9959 21.3182 20.806Z" fill="white"/>
<path d="M17.7785 14.4801C17.7879 16.3926 16.2127 17.9714 14.2907 17.977C12.3693 17.9819 10.7841 16.4293 10.7772 14.5342C10.7697 12.5776 12.3268 11.0025 14.2713 11C16.1958 10.9975 17.7691 12.5583 17.7785 14.4801ZM14.2694 12.5103C13.1657 12.5147 12.2723 13.4043 12.2754 14.495C12.2785 15.5801 13.1913 16.4816 14.2794 16.476C15.3819 16.4704 16.2666 15.5826 16.2653 14.4844C16.2641 13.3844 15.3763 12.5053 14.2694 12.5103Z" fill="white"/>
<path d="M26.2403 14.4819C26.2415 16.4081 24.6814 17.9726 22.7556 17.9763C20.8173 17.9807 19.2365 16.4112 19.2384 14.4851C19.2403 12.5701 20.8173 11.0006 22.7406 11C24.6676 10.9994 26.2397 12.5632 26.2403 14.4819ZM22.7331 12.5103C21.6243 12.5159 20.7491 13.395 20.7516 14.4994C20.7547 15.592 21.66 16.4866 22.7525 16.476C23.8519 16.4654 24.7478 15.5664 24.7421 14.4801C24.7359 13.3875 23.8362 12.5053 22.7331 12.5103Z" fill="white"/>
</g>
<defs>
<clipPath id="clip0_13_690">
<rect width="21" height="14" fill="white" transform="translate(8 11)"/>
</clipPath>
</defs>
</svg>
